<?xml version="1.0" encoding="UTF-8"?>
<svg xmlns="http://www.w3.org/2000/svg" xmlns:xlink="http://www.w3.org/1999/xlink" width="595.276" height="165.783" viewBox="0 0 595.276 165.783">
<path fill-rule="nonzero" fill="rgb(14.117432%, 19.999695%, 23.529053%)" fill-opacity="1" d="M 167.792969 81.300781 C 166.519531 79.117188 164.160156 77.628906 160.785156 76.878906 L 140.898438 72.441406 C 139.375 72.105469 138.5625 71.734375 138.257812 71.238281 C 138.078125 70.945312 138.054688 70.585938 138.171875 70.128906 L 139.105469 67.566406 L 169.792969 67.566406 L 174.296875 53.785156 L 141.070312 53.785156 C 135.503906 53.785156 131.644531 54.476562 128.910156 55.960938 C 125.640625 57.742188 123.453125 60.558594 122.230469 64.574219 L 120.433594 70.164062 C 119.472656 73.292969 119.832031 76.660156 121.417969 79.398438 C 122.976562 82.085938 125.515625 83.890625 128.769531 84.636719 L 147.785156 88.878906 C 148.871094 89.109375 149.582031 89.472656 149.890625 89.960938 C 150.074219 90.257812 150.121094 90.605469 150.027344 90.996094 L 149.082031 93.859375 L 116.898438 93.859375 L 112.460938 107.621094 L 145.476562 107.621094 C 152.988281 107.621094 156.921875 107.230469 160.355469 104.921875 C 163.898438 102.539062 165.300781 98.699219 166.652344 94.300781 L 168.253906 88.90625 C 169.140625 85.976562 168.984375 83.347656 167.792969 81.300781 "/>
<path fill-rule="nonzero" fill="rgb(14.117432%, 19.999695%, 23.529053%)" fill-opacity="1" d="M 314.945312 100.332031 L 300.6875 100.332031 L 304.421875 90.554688 C 305.183594 88.539062 305.871094 87.820312 308.214844 87.820312 L 318.886719 87.820312 Z M 336.609375 77.238281 C 335.066406 75.136719 332.339844 74.070312 328.492188 74.070312 L 305.1875 74.070312 C 297.007812 74.070312 291.773438 77.332031 289.171875 84.039062 L 272.066406 127.917969 L 290.109375 127.917969 L 295.546875 113.796875 L 310.550781 113.796875 L 306.019531 127.917969 L 323.707031 127.917969 L 337.253906 85.714844 C 338.351562 82.238281 338.128906 79.3125 336.609375 77.238281 "/>
<path fill-rule="nonzero" fill="rgb(14.117432%, 19.999695%, 23.529053%)" fill-opacity="1" d="M 421.800781 87.867188 L 447.300781 87.867188 L 451.835938 74.070312 L 417.636719 74.070312 C 409.699219 74.070312 405.332031 76.917969 403.042969 83.597656 L 392.421875 116.800781 C 391.410156 119.820312 391.667969 122.605469 393.132812 124.648438 C 394.660156 126.773438 397.335938 127.894531 400.859375 127.894531 L 424.429688 127.894531 C 430.050781 127.894531 432.414062 127.550781 434.960938 126.363281 C 438.035156 124.921875 439.785156 122.648438 441.199219 118.25 L 446.386719 102.054688 C 447.148438 99.699219 447.03125 97.8125 446.035156 96.441406 C 445.015625 95.039062 443.136719 94.300781 440.601562 94.300781 L 423.839844 94.300781 L 419.578125 107.597656 L 426.925781 107.597656 L 425.273438 112.789062 C 424.890625 113.882812 424.554688 114.085938 423.171875 114.085938 L 410.976562 114.082031 L 418.761719 89.867188 C 419.3125 88.167969 420.179688 87.867188 421.800781 87.867188 "/>
<path fill-rule="nonzero" fill="rgb(14.117432%, 19.999695%, 23.529053%)" fill-opacity="1" d="M 380.652344 74.070312 L 372.167969 100.515625 L 365.484375 77.445312 C 364.867188 75.238281 363.179688 74.070312 360.605469 74.070312 L 348.898438 74.070312 L 331.785156 127.425781 L 331.632812 127.894531 L 349.316406 127.894531 L 357.683594 101.820312 L 364.527344 124.675781 C 364.894531 125.882812 365.988281 127.894531 369.164062 127.894531 L 381.066406 127.894531 L 398.332031 74.070312 Z M 380.652344 74.070312 "/>
<path fill-rule="nonzero" fill="rgb(14.117432%, 19.999695%, 23.529053%)" fill-opacity="1" d="M 253.746094 112.140625 C 253.117188 113.984375 252.160156 114.078125 250.652344 114.078125 L 237.714844 114.078125 L 239.789062 107.605469 L 255.210938 107.605469 Z M 280.007812 76.882812 C 278.683594 75.066406 276.152344 74.070312 272.882812 74.070312 L 197.160156 74.070312 L 198.785156 68.960938 C 199.195312 67.628906 200.109375 67.566406 201.691406 67.566406 L 227.5 67.566406 L 231.917969 53.78125 L 201.320312 53.78125 C 195.757812 53.78125 191.890625 54.476562 189.160156 55.964844 C 185.890625 57.742188 183.707031 60.558594 182.480469 64.574219 L 168.664062 107.605469 L 214.90625 107.605469 L 219.328125 93.859375 L 190.847656 93.859375 L 192.921875 87.359375 L 261.707031 87.359375 L 260.035156 92.542969 C 259.757812 93.394531 259.34375 93.859375 258.011719 93.859375 L 226.511719 93.867188 L 215.597656 127.917969 L 251.082031 127.917969 C 257.96875 127.917969 261.121094 127.429688 264.035156 125.910156 C 266.507812 124.625 268.140625 122.378906 269.324219 118.605469 L 271.921875 110.480469 C 272.757812 107.988281 273.382812 105.15625 271.65625 103.050781 L 269.785156 100.953125 L 272.722656 98.910156 C 275.839844 96.917969 276.714844 95.738281 277.917969 91.902344 L 280.5625 83.625 C 281.425781 80.886719 281.238281 78.554688 280.007812 76.882812 "/>
<path fill-rule="nonzero" fill="rgb(14.117432%, 19.999695%, 23.529053%)" fill-opacity="1" d="M 260.191406 53.046875 L 250.085938 53.046875 L 255.140625 37.492188 L 258.226562 37.492188 L 254.054688 50.332031 L 261.074219 50.332031 Z M 260.191406 53.046875 "/>
<path fill-rule="nonzero" fill="rgb(14.117432%, 19.999695%, 23.529053%)" fill-opacity="1" d="M 267.902344 50.6875 C 268.425781 50.6875 268.859375 50.5625 269.203125 50.3125 C 269.546875 50.0625 269.820312 49.628906 270.023438 49.003906 L 270.875 46.382812 C 271.078125 45.757812 271.089844 45.324219 270.90625 45.070312 C 270.726562 44.824219 270.371094 44.699219 269.851562 44.699219 L 268.316406 44.699219 C 267.789062 44.699219 267.355469 44.824219 267.015625 45.070312 C 266.671875 45.324219 266.398438 45.757812 266.195312 46.382812 L 265.34375 49.003906 C 265.140625 49.628906 265.128906 50.0625 265.3125 50.3125 C 265.492188 50.5625 265.84375 50.6875 266.367188 50.6875 Z M 272.792969 49.117188 C 272.351562 50.476562 271.679688 51.484375 270.78125 52.136719 C 269.882812 52.792969 268.714844 53.121094 267.28125 53.121094 L 265.410156 53.121094 C 263.972656 53.121094 263.019531 52.792969 262.546875 52.136719 C 262.074219 51.484375 262.058594 50.476562 262.5 49.117188 L 263.425781 46.269531 C 263.867188 44.910156 264.535156 43.902344 265.433594 43.246094 C 266.335938 42.59375 267.5 42.265625 268.9375 42.265625 L 270.808594 42.265625 C 272.242188 42.265625 273.199219 42.59375 273.671875 43.246094 C 274.144531 43.902344 274.160156 44.910156 273.71875 46.269531 Z M 272.792969 49.117188 "/>
<path fill-rule="nonzero" fill="rgb(14.117432%, 19.999695%, 23.529053%)" fill-opacity="1" d="M 281.050781 50.613281 L 282.675781 45.617188 C 282.855469 45.054688 282.667969 44.773438 282.105469 44.773438 L 279.484375 44.773438 C 278.921875 44.773438 278.550781 45.054688 278.367188 45.617188 L 277.019531 49.769531 C 276.835938 50.332031 277.027344 50.613281 277.589844 50.613281 Z M 282.367188 55.199219 C 282.125 55.945312 281.796875 56.476562 281.382812 56.789062 C 280.96875 57.101562 280.390625 57.257812 279.640625 57.257812 L 272.714844 57.257812 L 273.503906 54.824219 L 279.121094 54.824219 C 279.359375 54.824219 279.523438 54.789062 279.613281 54.722656 C 279.703125 54.652344 279.789062 54.5 279.863281 54.261719 L 280.257812 53.046875 L 276.234375 53.046875 C 275.113281 53.046875 274.386719 52.828125 274.0625 52.390625 C 273.734375 51.953125 273.726562 51.269531 274.027344 50.332031 L 275.746094 45.054688 C 276.046875 44.117188 276.503906 43.429688 277.113281 42.996094 C 277.726562 42.558594 278.589844 42.339844 279.714844 42.339844 L 283.457031 42.339844 C 284.582031 42.339844 285.304688 42.558594 285.632812 42.996094 C 285.957031 43.429688 285.96875 44.117188 285.664062 45.054688 Z M 282.367188 55.199219 "/>
<path fill-rule="nonzero" fill="rgb(14.117432%, 19.999695%, 23.529053%)" fill-opacity="1" d="M 292.292969 39.925781 C 292.214844 40.160156 292.132812 40.316406 292.039062 40.382812 C 291.949219 40.453125 291.785156 40.488281 291.546875 40.488281 L 289.675781 40.488281 C 289.4375 40.488281 289.296875 40.453125 289.25 40.382812 C 289.207031 40.316406 289.21875 40.160156 289.296875 39.925781 L 289.90625 38.050781 C 289.984375 37.816406 290.066406 37.664062 290.160156 37.59375 C 290.25 37.527344 290.414062 37.492188 290.648438 37.492188 L 292.519531 37.492188 C 292.757812 37.492188 292.898438 37.527344 292.945312 37.59375 C 292.992188 37.664062 292.976562 37.816406 292.902344 38.050781 Z M 287.933594 53.046875 L 285.128906 53.046875 L 288.605469 42.339844 L 291.414062 42.339844 Z M 287.933594 53.046875 "/>
<path fill-rule="nonzero" fill="rgb(14.117432%, 19.999695%, 23.529053%)" fill-opacity="1" d="M 300.238281 50.332031 C 299.949219 51.21875 299.496094 51.890625 298.878906 52.351562 C 298.261719 52.816406 297.390625 53.046875 296.265625 53.046875 L 289.808594 53.046875 L 290.601562 50.613281 L 296.589844 50.613281 C 296.875 50.613281 297.089844 50.5625 297.226562 50.460938 C 297.367188 50.363281 297.472656 50.195312 297.550781 49.957031 C 297.613281 49.769531 297.609375 49.617188 297.539062 49.5 C 297.472656 49.382812 297.308594 49.285156 297.046875 49.210938 L 292.984375 47.9375 C 292.679688 47.835938 292.445312 47.703125 292.273438 47.535156 C 292.105469 47.367188 291.992188 47.175781 291.933594 46.960938 C 291.878906 46.75 291.867188 46.515625 291.902344 46.261719 C 291.933594 46.003906 292 45.734375 292.089844 45.445312 L 292.21875 45.054688 C 292.507812 44.167969 292.960938 43.492188 293.578125 43.03125 C 294.195312 42.570312 295.066406 42.339844 296.191406 42.339844 L 302.273438 42.339844 L 301.480469 44.773438 L 295.867188 44.773438 C 295.578125 44.773438 295.371094 44.808594 295.238281 44.886719 C 295.109375 44.960938 295.011719 45.097656 294.945312 45.296875 C 294.898438 45.445312 294.914062 45.566406 294.988281 45.664062 C 295.0625 45.757812 295.234375 45.839844 295.496094 45.914062 L 299.554688 47.1875 C 299.859375 47.289062 300.097656 47.421875 300.265625 47.589844 C 300.4375 47.757812 300.550781 47.949219 300.605469 48.160156 C 300.660156 48.375 300.671875 48.609375 300.636719 48.871094 C 300.601562 49.132812 300.539062 49.402344 300.449219 49.675781 Z M 300.238281 50.332031 "/>
<path fill-rule="nonzero" fill="rgb(14.117432%, 19.999695%, 23.529053%)" fill-opacity="1" d="M 307.835938 53.046875 L 306.339844 53.046875 C 304.90625 53.046875 303.949219 52.71875 303.476562 52.0625 C 303.003906 51.410156 302.988281 50.402344 303.429688 49.039062 L 304.816406 44.773438 L 302.851562 44.773438 L 303.640625 42.339844 L 305.609375 42.339844 L 306.574219 39.363281 L 309.382812 39.363281 L 308.414062 42.339844 L 311.316406 42.339844 L 310.527344 44.773438 L 307.625 44.773438 L 306.273438 48.929688 C 306.070312 49.554688 306.0625 49.988281 306.242188 50.238281 C 306.421875 50.488281 306.773438 50.613281 307.300781 50.613281 L 308.628906 50.613281 Z M 307.835938 53.046875 "/>
<path fill-rule="nonzero" fill="rgb(14.117432%, 19.999695%, 23.529053%)" fill-opacity="1" d="M 316.6875 39.925781 C 316.613281 40.160156 316.527344 40.316406 316.4375 40.382812 C 316.34375 40.453125 316.179688 40.488281 315.945312 40.488281 L 314.074219 40.488281 C 313.835938 40.488281 313.695312 40.453125 313.648438 40.382812 C 313.601562 40.316406 313.617188 40.160156 313.695312 39.925781 L 314.300781 38.050781 C 314.378906 37.816406 314.460938 37.664062 314.554688 37.59375 C 314.644531 37.527344 314.808594 37.492188 315.046875 37.492188 L 316.917969 37.492188 C 317.15625 37.492188 317.296875 37.527344 317.34375 37.59375 C 317.386719 37.664062 317.375 37.816406 317.296875 38.050781 Z M 312.332031 53.046875 L 309.523438 53.046875 L 313.003906 42.339844 L 315.8125 42.339844 Z M 312.332031 53.046875 "/>
<path fill-rule="nonzero" fill="rgb(14.117432%, 19.999695%, 23.529053%)" fill-opacity="1" d="M 322.421875 53.046875 L 317.910156 53.046875 C 316.472656 53.046875 315.519531 52.71875 315.046875 52.0625 C 314.574219 51.410156 314.558594 50.402344 315 49.039062 L 315.875 46.34375 C 316.316406 44.984375 316.988281 43.976562 317.886719 43.320312 C 318.785156 42.667969 319.953125 42.339844 321.386719 42.339844 L 325.898438 42.339844 L 325.109375 44.773438 L 320.765625 44.773438 C 320.242188 44.773438 319.808594 44.898438 319.464844 45.148438 C 319.121094 45.398438 318.847656 45.832031 318.648438 46.457031 L 317.84375 48.929688 C 317.640625 49.554688 317.628906 49.988281 317.8125 50.238281 C 317.992188 50.488281 318.34375 50.613281 318.867188 50.613281 L 323.210938 50.613281 Z M 322.421875 53.046875 "/>
<path fill-rule="nonzero" fill="rgb(14.117432%, 19.999695%, 23.529053%)" fill-opacity="1" d="M 334.347656 50.332031 C 334.058594 51.21875 333.605469 51.890625 332.988281 52.351562 C 332.371094 52.816406 331.5 53.046875 330.375 53.046875 L 323.917969 53.046875 L 324.707031 50.613281 L 330.699219 50.613281 C 330.984375 50.613281 331.199219 50.5625 331.335938 50.460938 C 331.476562 50.363281 331.582031 50.195312 331.660156 49.957031 C 331.71875 49.769531 331.714844 49.617188 331.648438 49.5 C 331.582031 49.382812 331.417969 49.285156 331.15625 49.210938 L 327.09375 47.9375 C 326.789062 47.835938 326.554688 47.703125 326.382812 47.535156 C 326.210938 47.367188 326.101562 47.175781 326.042969 46.960938 C 325.988281 46.75 325.976562 46.515625 326.011719 46.261719 C 326.042969 46.003906 326.105469 45.734375 326.199219 45.445312 L 326.328125 45.054688 C 326.617188 44.167969 327.070312 43.492188 327.6875 43.03125 C 328.304688 42.570312 329.175781 42.339844 330.296875 42.339844 L 336.382812 42.339844 L 335.589844 44.773438 L 329.976562 44.773438 C 329.6875 44.773438 329.480469 44.808594 329.347656 44.886719 C 329.21875 44.960938 329.121094 45.097656 329.054688 45.296875 C 329.007812 45.445312 329.019531 45.566406 329.097656 45.664062 C 329.171875 45.757812 329.339844 45.839844 329.605469 45.914062 L 333.664062 47.1875 C 333.96875 47.289062 334.207031 47.421875 334.375 47.589844 C 334.546875 47.757812 334.660156 47.949219 334.714844 48.160156 C 334.769531 48.375 334.78125 48.609375 334.746094 48.871094 C 334.710938 49.132812 334.648438 49.402344 334.558594 49.675781 Z M 334.347656 50.332031 "/>
<path fill-rule="nonzero" fill="rgb(14.117432%, 19.999695%, 23.529053%)" fill-opacity="1" d="M 343.664062 53.046875 L 340.578125 53.046875 L 344.71875 40.300781 C 345.324219 38.425781 346.566406 37.492188 348.4375 37.492188 L 355.738281 37.492188 L 354.855469 40.207031 L 348.585938 40.207031 C 348.296875 40.207031 348.085938 40.257812 347.945312 40.363281 C 347.804688 40.472656 347.6875 40.667969 347.59375 40.953125 L 346.761719 43.519531 L 353.03125 43.519531 L 352.160156 46.195312 L 345.890625 46.195312 Z M 343.664062 53.046875 "/>
<path fill-rule="nonzero" fill="rgb(14.117432%, 19.999695%, 23.529053%)" fill-opacity="1" d="M 358.863281 50.6875 C 359.386719 50.6875 359.820312 50.5625 360.164062 50.3125 C 360.507812 50.0625 360.78125 49.628906 360.980469 49.003906 L 361.832031 46.382812 C 362.035156 45.757812 362.046875 45.324219 361.867188 45.070312 C 361.683594 44.824219 361.332031 44.699219 360.808594 44.699219 L 359.273438 44.699219 C 358.75 44.699219 358.316406 44.824219 357.972656 45.070312 C 357.628906 45.324219 357.355469 45.757812 357.152344 46.382812 L 356.300781 49.003906 C 356.101562 49.628906 356.089844 50.0625 356.269531 50.3125 C 356.453125 50.5625 356.804688 50.6875 357.328125 50.6875 Z M 363.753906 49.117188 C 363.3125 50.476562 362.640625 51.484375 361.742188 52.136719 C 360.84375 52.792969 359.675781 53.121094 358.238281 53.121094 L 356.367188 53.121094 C 354.933594 53.121094 353.980469 52.792969 353.503906 52.136719 C 353.03125 51.484375 353.015625 50.476562 353.457031 49.117188 L 354.382812 46.269531 C 354.824219 44.910156 355.496094 43.902344 356.394531 43.246094 C 357.292969 42.59375 358.460938 42.265625 359.894531 42.265625 L 361.765625 42.265625 C 363.203125 42.265625 364.15625 42.59375 364.628906 43.246094 C 365.105469 43.902344 365.117188 44.910156 364.675781 46.269531 Z M 363.753906 49.117188 "/>
<path fill-rule="nonzero" fill="rgb(14.117432%, 19.999695%, 23.529053%)" fill-opacity="1" d="M 367.0625 53.046875 L 364.253906 53.046875 L 366.429688 46.34375 C 366.871094 44.984375 367.542969 43.976562 368.441406 43.320312 C 369.339844 42.667969 370.507812 42.339844 371.945312 42.339844 L 373.441406 42.339844 L 372.652344 44.773438 L 371.320312 44.773438 C 370.796875 44.773438 370.363281 44.898438 370.023438 45.148438 C 369.679688 45.398438 369.40625 45.832031 369.203125 46.457031 Z M 367.0625 53.046875 "/>
<path fill-rule="nonzero" fill="rgb(14.117432%, 19.999695%, 23.529053%)" fill-opacity="1" d="M 386.65625 43.726562 C 387.652344 43.726562 388.304688 43.257812 388.609375 42.320312 L 388.859375 41.554688 C 389.011719 41.078125 389.007812 40.738281 388.847656 40.523438 C 388.683594 40.3125 388.390625 40.207031 387.96875 40.207031 L 384.242188 40.207031 L 383.097656 43.726562 Z M 384.902344 50.332031 C 385.800781 50.332031 386.414062 49.828125 386.742188 48.816406 L 387.050781 47.859375 C 387.199219 47.410156 387.203125 47.027344 387.070312 46.710938 C 386.9375 46.390625 386.613281 46.230469 386.101562 46.230469 L 382.285156 46.230469 L 380.953125 50.332031 Z M 389.683594 49.265625 C 389.492188 49.851562 389.226562 50.378906 388.878906 50.847656 C 388.535156 51.316406 388.132812 51.710938 387.671875 52.035156 C 387.210938 52.359375 386.695312 52.609375 386.125 52.785156 C 385.558594 52.957031 384.960938 53.046875 384.335938 53.046875 L 376.980469 53.046875 L 382.035156 37.492188 L 389.148438 37.492188 C 390.46875 37.492188 391.386719 37.800781 391.898438 38.417969 C 392.410156 39.035156 392.480469 39.914062 392.109375 41.046875 L 391.777344 42.078125 C 391.515625 42.875 391.167969 43.507812 390.730469 43.96875 C 390.292969 44.429688 389.742188 44.765625 389.074219 44.980469 C 389.738281 45.089844 390.140625 45.410156 390.289062 45.933594 C 390.4375 46.457031 390.394531 47.074219 390.164062 47.785156 Z M 389.683594 49.265625 "/>
<path fill-rule="nonzero" fill="rgb(14.117432%, 19.999695%, 23.529053%)" fill-opacity="1" d="M 398.542969 47.054688 C 399.105469 47.054688 399.476562 46.777344 399.660156 46.214844 L 399.855469 45.617188 C 400.039062 45.054688 399.847656 44.773438 399.285156 44.773438 L 396.664062 44.773438 C 396.105469 44.773438 395.734375 45.054688 395.546875 45.617188 L 395.082031 47.054688 Z M 399.535156 53.046875 L 393.414062 53.046875 C 392.292969 53.046875 391.566406 52.828125 391.242188 52.390625 C 390.914062 51.953125 390.90625 51.269531 391.210938 50.332031 L 392.925781 45.054688 C 393.230469 44.117188 393.683594 43.433594 394.292969 42.996094 C 394.90625 42.558594 395.769531 42.339844 396.894531 42.339844 L 400.636719 42.339844 C 401.761719 42.339844 402.484375 42.558594 402.8125 42.996094 C 403.136719 43.433594 403.148438 44.117188 402.84375 45.054688 L 402.347656 46.589844 C 402.042969 47.523438 401.585938 48.210938 400.976562 48.648438 C 400.367188 49.085938 399.5 49.300781 398.375 49.300781 L 394.351562 49.300781 L 394.199219 49.769531 C 394.015625 50.332031 394.207031 50.613281 394.769531 50.613281 L 400.328125 50.613281 Z M 399.535156 53.046875 "/>
<path fill-rule="nonzero" fill="rgb(14.117432%, 19.999695%, 23.529053%)" fill-opacity="1" d="M 409.136719 53.046875 L 407.640625 53.046875 C 406.207031 53.046875 405.25 52.71875 404.777344 52.0625 C 404.304688 51.410156 404.289062 50.402344 404.730469 49.039062 L 406.117188 44.773438 L 404.152344 44.773438 L 404.941406 42.339844 L 406.90625 42.339844 L 407.875 39.363281 L 410.683594 39.363281 L 409.714844 42.339844 L 412.617188 42.339844 L 411.828125 44.773438 L 408.925781 44.773438 L 407.574219 48.929688 C 407.371094 49.554688 407.363281 49.988281 407.542969 50.238281 C 407.722656 50.488281 408.074219 50.613281 408.601562 50.613281 L 409.929688 50.613281 Z M 409.136719 53.046875 "/>
<path fill-rule="nonzero" fill="rgb(14.117432%, 19.999695%, 23.529053%)" fill-opacity="1" d="M 417.65625 53.046875 L 416.15625 53.046875 C 414.722656 53.046875 413.769531 52.71875 413.292969 52.0625 C 412.820312 51.410156 412.804688 50.402344 413.246094 49.039062 L 414.632812 44.773438 L 412.667969 44.773438 L 413.460938 42.339844 L 415.425781 42.339844 L 416.390625 39.363281 L 419.199219 39.363281 L 418.230469 42.339844 L 421.132812 42.339844 L 420.34375 44.773438 L 417.441406 44.773438 L 416.089844 48.929688 C 415.886719 49.554688 415.878906 49.988281 416.058594 50.238281 C 416.238281 50.488281 416.59375 50.613281 417.117188 50.613281 L 418.445312 50.613281 Z M 417.65625 53.046875 "/>
<path fill-rule="nonzero" fill="rgb(14.117432%, 19.999695%, 23.529053%)" fill-opacity="1" d="M 427.273438 47.054688 C 427.835938 47.054688 428.207031 46.777344 428.390625 46.214844 L 428.585938 45.617188 C 428.769531 45.054688 428.578125 44.773438 428.015625 44.773438 L 425.394531 44.773438 C 424.835938 44.773438 424.464844 45.054688 424.28125 45.617188 L 423.8125 47.054688 Z M 428.269531 53.046875 L 422.148438 53.046875 C 421.023438 53.046875 420.300781 52.828125 419.972656 52.390625 C 419.648438 51.953125 419.636719 51.269531 419.941406 50.332031 L 421.65625 45.054688 C 421.960938 44.117188 422.417969 43.433594 423.027344 42.996094 C 423.636719 42.558594 424.503906 42.339844 425.625 42.339844 L 429.371094 42.339844 C 430.492188 42.339844 431.214844 42.558594 431.542969 42.996094 C 431.867188 43.433594 431.878906 44.117188 431.574219 45.054688 L 431.078125 46.589844 C 430.773438 47.523438 430.316406 48.210938 429.707031 48.648438 C 429.097656 49.085938 428.230469 49.300781 427.105469 49.300781 L 423.082031 49.300781 L 422.929688 49.769531 C 422.746094 50.332031 422.9375 50.613281 423.5 50.613281 L 429.058594 50.613281 Z M 428.269531 53.046875 "/>
<path fill-rule="nonzero" fill="rgb(14.117432%, 19.999695%, 23.529053%)" fill-opacity="1" d="M 433.566406 53.046875 L 430.757812 53.046875 L 432.933594 46.34375 C 433.375 44.984375 434.046875 43.976562 434.945312 43.320312 C 435.84375 42.667969 437.011719 42.339844 438.449219 42.339844 L 439.945312 42.339844 L 439.15625 44.773438 L 437.824219 44.773438 C 437.300781 44.773438 436.867188 44.898438 436.523438 45.148438 C 436.179688 45.398438 435.90625 45.832031 435.707031 46.457031 Z M 433.566406 53.046875 "/>
<path fill-rule="nonzero" fill="rgb(14.117432%, 19.999695%, 23.529053%)" fill-opacity="1" d="M 453.59375 53.046875 L 443.484375 53.046875 L 448.539062 37.492188 L 451.625 37.492188 L 447.457031 50.332031 L 454.472656 50.332031 Z M 453.59375 53.046875 "/>
<path fill-rule="nonzero" fill="rgb(14.117432%, 19.999695%, 23.529053%)" fill-opacity="1" d="M 462.871094 39.925781 C 462.792969 40.160156 462.710938 40.316406 462.621094 40.382812 C 462.527344 40.453125 462.367188 40.488281 462.128906 40.488281 L 460.257812 40.488281 C 460.019531 40.488281 459.875 40.453125 459.832031 40.382812 C 459.785156 40.316406 459.800781 40.160156 459.875 39.925781 L 460.484375 38.050781 C 460.5625 37.816406 460.644531 37.664062 460.738281 37.59375 C 460.828125 37.527344 460.992188 37.492188 461.230469 37.492188 L 463.101562 37.492188 C 463.339844 37.492188 463.480469 37.527344 463.527344 37.59375 C 463.574219 37.664062 463.558594 37.816406 463.480469 38.050781 Z M 458.515625 53.046875 L 455.707031 53.046875 L 459.1875 42.339844 L 461.992188 42.339844 Z M 458.515625 53.046875 "/>
<path fill-rule="nonzero" fill="rgb(14.117432%, 19.999695%, 23.529053%)" fill-opacity="1" d="M 465.308594 53.046875 L 462.5 53.046875 L 465.191406 44.773438 L 462.851562 44.773438 L 463.640625 42.339844 L 465.980469 42.339844 L 466.253906 41.496094 C 466.695312 40.136719 467.367188 39.128906 468.265625 38.472656 C 469.164062 37.820312 470.332031 37.492188 471.765625 37.492188 L 473.453125 37.492188 L 472.660156 39.925781 L 471.144531 39.925781 C 470.621094 39.925781 470.1875 40.050781 469.84375 40.300781 C 469.5 40.550781 469.230469 40.984375 469.023438 41.609375 L 468.789062 42.339844 L 471.878906 42.339844 L 471.085938 44.773438 L 467.996094 44.773438 Z M 465.308594 53.046875 "/>
<path fill-rule="nonzero" fill="rgb(14.117432%, 19.999695%, 23.529053%)" fill-opacity="1" d="M 478.019531 47.054688 C 478.578125 47.054688 478.949219 46.777344 479.132812 46.214844 L 479.328125 45.617188 C 479.511719 45.054688 479.320312 44.773438 478.761719 44.773438 L 476.140625 44.773438 C 475.578125 44.773438 475.207031 45.054688 475.023438 45.617188 L 474.554688 47.054688 Z M 479.011719 53.046875 L 472.890625 53.046875 C 471.765625 53.046875 471.042969 52.828125 470.714844 52.390625 C 470.390625 51.953125 470.378906 51.269531 470.683594 50.332031 L 472.398438 45.054688 C 472.703125 44.117188 473.160156 43.433594 473.769531 42.996094 C 474.378906 42.558594 475.246094 42.339844 476.367188 42.339844 L 480.113281 42.339844 C 481.234375 42.339844 481.960938 42.558594 482.285156 42.996094 C 482.613281 43.433594 482.621094 44.117188 482.320312 45.054688 L 481.820312 46.589844 C 481.515625 47.523438 481.058594 48.210938 480.449219 48.648438 C 479.839844 49.085938 478.972656 49.300781 477.847656 49.300781 L 473.824219 49.300781 L 473.671875 49.769531 C 473.492188 50.332031 473.679688 50.613281 474.242188 50.613281 L 479.800781 50.613281 Z M 479.011719 53.046875 "/>
</svg>
